<svg width="24" height="25" viewBox="0 0 24 25" fill="none" xmlns="http://www.w3.org/2000/svg">
<g id="mdi:emoji">
<path id="Vector" d="M12 2.48438C6.47 2.48438 2 6.98438 2 12.4844C2 15.1365 3.05357 17.6801 4.92893 19.5554C5.85752 20.484 6.95991 21.2206 8.17317 21.7232C9.38642 22.2257 10.6868 22.4844 12 22.4844C14.6522 22.4844 17.1957 21.4308 19.0711 19.5554C20.9464 17.6801 22 15.1365 22 12.4844C22 11.1712 21.7413 9.8708 21.2388 8.65754C20.7362 7.44428 19.9997 6.34189 19.0711 5.41331C18.1425 4.48472 17.0401 3.74813 15.8268 3.24558C14.6136 2.74303 13.3132 2.48438 12 2.48438ZM15.5 8.48438C15.8978 8.48438 16.2794 8.64241 16.5607 8.92371C16.842 9.20502 17 9.58655 17 9.98438C17 10.3822 16.842 10.7637 16.5607 11.045C16.2794 11.3263 15.8978 11.4844 15.5 11.4844C15.1022 11.4844 14.7206 11.3263 14.4393 11.045C14.158 10.7637 14 10.3822 14 9.98438C14 9.58655 14.158 9.20502 14.4393 8.92371C14.7206 8.64241 15.1022 8.48438 15.5 8.48438ZM8.5 8.48438C8.89782 8.48438 9.27936 8.64241 9.56066 8.92371C9.84196 9.20502 10 9.58655 10 9.98438C10 10.3822 9.84196 10.7637 9.56066 11.045C9.27936 11.3263 8.89782 11.4844 8.5 11.4844C8.10218 11.4844 7.72064 11.3263 7.43934 11.045C7.15804 10.7637 7 10.3822 7 9.98438C7 9.58655 7.15804 9.20502 7.43934 8.92371C7.72064 8.64241 8.10218 8.48438 8.5 8.48438ZM12 17.9844C9.67 17.9844 7.69 16.5244 6.89 14.4844H17.11C16.3 16.5244 14.33 17.9844 12 17.9844Z" fill="#FDB9C1"/>
</g>
</svg>
