<svg width="16" height="16" viewBox="0 0 16 16" fill="none" xmlns="http://www.w3.org/2000/svg">
<path opacity="0.4" d="M10 6C11.1046 6 12 5.10457 12 4C12 2.89543 11.1046 2 10 2C8.89543 2 8 2.89543 8 4C8 5.10457 8.89543 6 10 6Z" fill="black"/>
<path opacity="0.4" d="M10.6663 13.3335C12.5073 13.3335 13.9997 12.4381 13.9997 11.3335C13.9997 10.2289 12.5073 9.3335 10.6663 9.3335C8.82539 9.3335 7.33301 10.2289 7.33301 11.3335C7.33301 12.4381 8.82539 13.3335 10.6663 13.3335Z" fill="black"/>
<path d="M6.00065 6.66683C7.47341 6.66683 8.66732 5.47292 8.66732 4.00016C8.66732 2.5274 7.47341 1.3335 6.00065 1.3335C4.52789 1.3335 3.33398 2.5274 3.33398 4.00016C3.33398 5.47292 4.52789 6.66683 6.00065 6.66683Z" fill="black"/>
<path d="M6.00065 14.0008C8.57798 14.0008 10.6673 12.8069 10.6673 11.3341C10.6673 9.86139 8.57798 8.66748 6.00065 8.66748C3.42332 8.66748 1.33398 9.86139 1.33398 11.3341C1.33398 12.8069 3.42332 14.0008 6.00065 14.0008Z" fill="black"/>
</svg>
