<svg width="16" height="16" viewBox="0 0 16 16" fill="none" xmlns="http://www.w3.org/2000/svg">
<path d="M6.00065 6.66683C7.47341 6.66683 8.66732 5.47292 8.66732 4.00016C8.66732 2.5274 7.47341 1.3335 6.00065 1.3335C4.52789 1.3335 3.33398 2.5274 3.33398 4.00016C3.33398 5.47292 4.52789 6.66683 6.00065 6.66683Z" fill="black"/>
<path d="M6.00065 14.0008C8.57798 14.0008 10.6673 12.8069 10.6673 11.3341C10.6673 9.86139 8.57798 8.66748 6.00065 8.66748C3.42332 8.66748 1.33398 9.86139 1.33398 11.3341C1.33398 12.8069 3.42332 14.0008 6.00065 14.0008Z" fill="black"/>
<path d="M14.0005 11.3333C14.0005 12.4379 12.6431 13.3333 10.9865 13.3333C11.4745 12.7999 11.8105 12.1299 11.8105 11.3346C11.8105 10.5379 11.4738 9.86793 10.9845 9.33393C12.6418 9.33327 14.0005 10.2293 14.0005 11.3333ZM12.0005 3.99993C12.0007 4.32174 11.9232 4.63885 11.7747 4.92434C11.6262 5.20982 11.4109 5.45525 11.1473 5.63978C10.8836 5.82432 10.5794 5.9425 10.2603 5.98431C9.9412 6.02612 9.61674 5.99031 9.31445 5.87993C9.64013 5.30696 9.81086 4.659 9.80979 3.99993C9.80979 3.3166 9.62979 2.67526 9.31512 2.1206C9.61737 2.01035 9.94176 1.97465 10.2608 2.01652C10.5797 2.0584 10.8839 2.17661 11.1475 2.36112C11.411 2.54564 11.6262 2.79102 11.7747 3.07643C11.9232 3.36184 12.0006 3.6782 12.0005 3.99993Z" fill="black"/>
</svg>
