<svg width="16" height="16" viewBox="0 0 16 16" fill="none" xmlns="http://www.w3.org/2000/svg">
<path d="M7.99967 14.6668C4.31767 14.6668 1.33301 11.6822 1.33301 8.00016C1.33301 4.31816 4.31767 1.3335 7.99967 1.3335C11.6817 1.3335 14.6663 4.31816 14.6663 8.00016C14.6663 11.6822 11.6817 14.6668 7.99967 14.6668ZM12.2363 10.6348V10.5648C12.2363 9.95016 12.2363 9.6695 11.8017 9.42083C11.662 9.34163 11.5185 9.26932 11.3717 9.20416C11.127 9.09283 10.965 9.02016 10.7463 8.70016C10.7202 8.66216 10.6945 8.62394 10.669 8.5855C10.439 8.2355 10.273 7.9835 9.64101 8.0835C8.39767 8.28083 8.30567 8.4995 8.25101 8.86883L8.24234 8.9295C8.16167 9.4695 8.14701 9.65083 8.37234 9.8875C9.21567 10.7722 9.72101 11.4102 9.87434 11.7835C9.94901 11.9655 10.141 12.5168 10.009 13.0622C10.8182 12.7398 11.5385 12.2285 12.1097 11.5708C12.183 11.3215 12.2363 11.0108 12.2363 10.6348ZM7.99967 2.5555C6.45501 2.5555 5.05967 3.1995 4.06901 4.23283C4.18701 4.31483 4.28967 4.43016 4.36034 4.58883C4.49634 4.8935 4.49634 5.2075 4.49634 5.4855C4.49634 5.70416 4.49634 5.91216 4.56634 6.06216C4.66234 6.2675 5.07701 6.3555 5.44301 6.4315C5.57434 6.4595 5.70901 6.4875 5.83167 6.5215C6.16901 6.61483 6.43034 6.91816 6.63901 7.1615C6.72567 7.26216 6.85434 7.41083 6.91901 7.44816C6.95234 7.42416 7.05967 7.3075 7.11234 7.11616C7.15367 6.9695 7.14167 6.84016 7.08234 6.7695C6.70901 6.3295 6.72967 5.48283 6.84501 5.17016C7.02634 4.6775 7.59301 4.71416 8.00767 4.74083C8.16234 4.75083 8.30767 4.76083 8.41701 4.74683C8.83168 4.69483 8.95967 4.0635 9.04967 3.94016C9.24434 3.6735 9.84034 3.2715 10.2097 3.0235C9.51401 2.71416 8.76102 2.5547 7.99967 2.5555Z" fill="black"/>
</svg>
