<svg width="16" height="16" viewBox="0 0 16 16" fill="none" xmlns="http://www.w3.org/2000/svg">
<g id="uis:padlock">
<path id="Vector" d="M11.3337 6.00016V4.66683C11.3337 2.80016 9.86699 1.3335 8.00033 1.3335C6.13366 1.3335 4.66699 2.80016 4.66699 4.66683V6.00016C3.53366 6.00016 2.66699 6.86683 2.66699 8.00016V12.6668C2.66699 13.8002 3.53366 14.6668 4.66699 14.6668H11.3337C12.467 14.6668 13.3337 13.8002 13.3337 12.6668V8.00016C13.3337 6.86683 12.467 6.00016 11.3337 6.00016ZM6.00033 4.66683C6.00033 3.5335 6.86699 2.66683 8.00033 2.66683C9.13366 2.66683 10.0003 3.5335 10.0003 4.66683V6.00016H6.00033V4.66683ZM8.73366 10.3335L8.66699 10.4002V11.3335C8.66699 11.7335 8.40033 12.0002 8.00033 12.0002C7.60033 12.0002 7.33366 11.7335 7.33366 11.3335V10.4002C6.93366 10.0002 6.86699 9.40016 7.26699 9.00016C7.66699 8.60016 8.26699 8.5335 8.66699 8.9335C9.06699 9.26683 9.13366 9.9335 8.73366 10.3335Z" fill="black"/>
</g>
</svg>
