<svg width="25" height="24" viewBox="0 0 25 24" fill="none" xmlns="http://www.w3.org/2000/svg">
<g id="vuesax/linear/money-recive">
<g id="Group">
<path id="Vector" d="M10.25 13.7502C10.25 14.7202 11 15.5002 11.92 15.5002H13.8C14.6 15.5002 15.25 14.8202 15.25 13.9702C15.25 13.0602 14.85 12.7302 14.26 12.5202L11.25 11.4702C10.66 11.2602 10.26 10.9402 10.26 10.0202C10.26 9.18023 10.91 8.49023 11.71 8.49023H13.59C14.51 8.49023 15.26 9.27023 15.26 10.2402" stroke="white" stroke-width="1.5" stroke-linecap="round" stroke-linejoin="round"/>
<path id="Vector_2" d="M12.75 7.5V16.5" stroke="white" stroke-width="1.5" stroke-linecap="round" stroke-linejoin="round"/>
</g>
<path id="Vector_3" d="M22.75 12C22.75 17.52 18.27 22 12.75 22C7.23 22 2.75 17.52 2.75 12C2.75 6.48 7.23 2 12.75 2" stroke="white" stroke-width="1.5" stroke-linecap="round" stroke-linejoin="round"/>
<path id="Vector_4" d="M17.75 3V7H21.75" stroke="white" stroke-width="1.5" stroke-linecap="round" stroke-linejoin="round"/>
<path id="Vector_5" d="M22.75 2L17.75 7" stroke="white" stroke-width="1.5" stroke-linecap="round" stroke-linejoin="round"/>
</g>
</svg>
